<svg width="226" height="157" viewBox="0 0 226 157" fill="none" xmlns="http://www.w3.org/2000/svg">
<g clip-path="url(#clip0_241_427)">
<path d="M42.8755 33.6647C50.0041 33.6647 55.7829 27.8885 55.7829 20.7633C55.7829 13.638 50.0041 7.86182 42.8755 7.86182C35.7469 7.86182 29.968 13.638 29.968 20.7633C29.968 27.8885 35.7469 33.6647 42.8755 33.6647Z" fill="#FFF2F0"/>
<path d="M105.675 69.1683C105.675 99.6099 87.5695 110.239 65.2352 110.239C42.9009 110.239 24.7954 99.6099 24.7954 69.1683C24.7954 38.7266 65.2352 0 65.2352 0C65.2352 0 105.675 38.7266 105.675 69.1683Z" fill="#EBEBEB"/>
<path d="M63.7621 105.582L64.1763 80.1055L81.4126 48.5869L64.2413 76.1089L64.4274 64.6534L76.3067 41.8501L64.4766 61.622L64.8114 41.0188L77.5321 22.8644L64.8642 37.7789L65.0734 0L63.7584 50.0125L63.8665 47.9493L50.9335 28.1623L63.6592 51.9098L62.4542 74.92L62.4183 74.3094L47.5085 53.4864L62.3731 76.4669L62.2224 79.3445L62.1954 79.3879L62.2077 79.6241L59.1505 138.003H63.2353L63.7254 107.849L78.5532 84.9248L63.7621 105.582Z" fill="#3F3D56"/>
<path d="M226 81.6363C226 106.554 211.18 115.255 192.898 115.255C174.616 115.255 159.796 106.554 159.796 81.6363C159.796 56.7183 192.898 25.0187 192.898 25.0187C192.898 25.0187 226 56.7183 226 81.6363Z" fill="#EBEBEB"/>
<path d="M191.692 111.443L192.031 90.589L206.14 64.7895L192.084 87.3174L192.237 77.9407L201.961 59.2749L192.277 75.4592L192.551 58.5946L202.964 43.7343L192.594 55.9427L192.766 25.0187L191.689 65.9563L191.778 64.2676L181.191 48.0708L191.608 67.5095L190.622 86.3444L190.592 85.8444L178.388 68.7998L190.555 87.6105L190.432 89.9661L190.41 90.0015L190.42 90.1949L187.917 137.981H191.261L191.662 113.298L203.8 94.5338L191.692 111.443Z" fill="#3F3D56"/>
<path d="M111.85 142.826C173.623 142.826 223.699 140.296 223.699 137.174C223.699 134.053 173.623 131.523 111.85 131.523C50.0768 131.523 0 134.053 0 137.174C0 140.296 50.0768 142.826 111.85 142.826Z" fill="#FFF8EB"/>
<path d="M179.988 147.479C190.568 147.479 199.145 147.046 199.145 146.511C199.145 145.977 190.568 145.544 179.988 145.544C169.407 145.544 160.83 145.977 160.83 146.511C160.83 147.046 169.407 147.479 179.988 147.479Z" fill="#FFF8EB"/>
<path d="M110.665 156.816C121.246 156.816 129.823 156.383 129.823 155.848C129.823 155.314 121.246 154.88 110.665 154.88C100.085 154.88 91.5081 155.314 91.5081 155.848C91.5081 156.383 100.085 156.816 110.665 156.816Z" fill="#FFF8EB"/>
<path d="M58.0724 150.231C82.2444 150.231 101.84 149.241 101.84 148.02C101.84 146.798 82.2444 145.808 58.0724 145.808C33.9004 145.808 14.3052 146.798 14.3052 148.02C14.3052 149.241 33.9004 150.231 58.0724 150.231Z" fill="#FFF8EB"/>
<path d="M19.5799 130.077C28.3792 130.077 35.5125 122.947 35.5125 114.152C35.5125 105.356 28.3792 98.2264 19.5799 98.2264C10.7805 98.2264 3.64722 105.356 3.64722 114.152C3.64722 122.947 10.7805 130.077 19.5799 130.077Z" fill="#2F2E41"/>
<path d="M17.0126 126.621L12.1726 126.564L12.0704 135.231L16.9104 135.288L17.0126 126.621Z" fill="#2F2E41"/>
<path d="M26.6925 126.735L21.8525 126.678L21.7504 135.345L26.5903 135.402L26.6925 126.735Z" fill="#2F2E41"/>
<path d="M20.1357 135.427C20.1455 134.592 18.3477 133.894 16.1202 133.868C13.8927 133.841 12.0789 134.497 12.0691 135.332C12.0592 136.167 13.857 136.865 16.0846 136.891C18.3121 136.917 20.1259 136.262 20.1357 135.427Z" fill="#2F2E41"/>
<path d="M29.8181 135.339C29.8279 134.504 28.0301 133.806 25.8026 133.78C23.5751 133.754 21.7613 134.409 21.7515 135.244C21.7416 136.079 23.5394 136.777 25.7669 136.804C27.9945 136.83 29.8082 136.174 29.8181 135.339Z" fill="#2F2E41"/>
<path d="M20.0305 115.568C23.0379 115.568 25.4759 113.131 25.4759 110.125C25.4759 107.119 23.0379 104.682 20.0305 104.682C17.0232 104.682 14.5852 107.119 14.5852 110.125C14.5852 113.131 17.0232 115.568 20.0305 115.568Z" fill="white"/>
<path d="M20.0307 111.939C21.0331 111.939 21.8458 111.127 21.8458 110.125C21.8458 109.123 21.0331 108.311 20.0307 108.311C19.0282 108.311 18.2156 109.123 18.2156 110.125C18.2156 111.127 19.0282 111.939 20.0307 111.939Z" fill="#3F3D56"/>
<path d="M4.30021 99.1606C3.0817 93.3871 7.26239 87.6169 13.6381 86.2725C20.0137 84.9282 26.17 88.5188 27.3885 94.2923C28.6071 100.066 24.3677 102.14 17.9921 103.484C11.6164 104.829 5.51873 104.934 4.30021 99.1606Z" fill="#D3766A"/>
<path d="M43.8838 123.036C43.8838 134.138 37.2809 138.015 29.135 138.015C28.9463 138.015 28.7579 138.013 28.5698 138.009C28.1924 138.001 27.8186 137.983 27.4492 137.957C20.0978 137.437 14.3862 133.361 14.3862 123.036C14.3862 112.35 28.0477 98.8666 29.0739 97.8687L29.0757 97.8669C29.1153 97.8283 29.135 97.8094 29.135 97.8094C29.135 97.8094 43.8838 111.933 43.8838 123.036Z" fill="#D3766A"/>
<path d="M28.5975 136.317L33.9918 128.783L28.5841 137.144L28.5697 138.009C28.1923 138.001 27.8184 137.983 27.4491 137.958L28.0305 126.85L28.026 126.763L28.0359 126.747L28.0907 125.698L22.6694 117.316L28.1078 124.911L28.1204 125.134L28.5598 116.741L23.9185 108.08L28.6164 115.268L29.0738 97.8688L29.0756 97.8095V97.867L28.9992 111.588L33.6198 106.148L28.9803 112.77L28.8581 120.284L33.1723 113.072L28.8402 121.39L28.7719 125.567L35.0351 115.53L28.7485 127.025L28.5975 136.317Z" fill="#3F3D56"/>
<path d="M143.693 129.905C152.493 129.905 159.626 122.775 159.626 113.979C159.626 105.184 152.493 98.0541 143.693 98.0541C134.894 98.0541 127.761 105.184 127.761 113.979C127.761 122.775 134.894 129.905 143.693 129.905Z" fill="#2F2E41"/>
<path d="M145.053 126.637L140.427 128.058L142.974 136.344L147.601 134.923L145.053 126.637Z" fill="#2F2E41"/>
<path d="M154.306 123.795L149.68 125.217L152.227 133.502L156.854 132.081L154.306 123.795Z" fill="#2F2E41"/>
<path d="M147.304 136.701C149.433 136.047 150.96 134.87 150.715 134.071C150.469 133.273 148.544 133.156 146.415 133.811C144.286 134.465 142.758 135.642 143.004 136.44C143.249 137.238 145.174 137.355 147.304 136.701Z" fill="#2F2E41"/>
<path d="M156.498 133.666C158.627 133.012 160.155 131.834 159.909 131.036C159.664 130.238 157.739 130.121 155.609 130.775C153.48 131.429 151.953 132.607 152.198 133.405C152.443 134.203 154.369 134.32 156.498 133.666Z" fill="#2F2E41"/>
<path d="M142.894 115.45C145.901 115.45 148.339 113.013 148.339 110.007C148.339 107.001 145.901 104.564 142.894 104.564C139.887 104.564 137.449 107.001 137.449 110.007C137.449 113.013 139.887 115.45 142.894 115.45Z" fill="white"/>
<path d="M142.894 111.821C143.896 111.821 144.709 111.009 144.709 110.007C144.709 109.005 143.896 108.193 142.894 108.193C141.892 108.193 141.079 109.005 141.079 110.007C141.079 111.009 141.892 111.821 142.894 111.821Z" fill="#3F3D56"/>
<path d="M124.567 104.361C121.645 99.234 123.866 92.4642 129.528 89.2402C135.189 86.0162 142.148 87.5588 145.07 92.6858C147.992 97.8128 144.588 101.081 138.926 104.305C133.265 107.529 127.49 109.488 124.567 104.361Z" fill="#D3766A"/>
<path d="M115.278 121.003C115.278 131.194 109.217 134.753 101.739 134.753C101.566 134.753 101.393 134.751 101.221 134.747C100.874 134.74 100.531 134.723 100.192 134.7C93.4436 134.223 88.2007 130.481 88.2007 121.003C88.2007 111.194 100.741 98.8166 101.683 97.9006L101.685 97.8989C101.721 97.8634 101.739 97.8461 101.739 97.8461C101.739 97.8461 115.278 110.811 115.278 121.003Z" fill="#D3766A"/>
<path d="M101.246 133.194L106.198 126.278L101.234 133.953L101.221 134.747C100.874 134.74 100.531 134.723 100.192 134.7L100.726 124.504L100.722 124.425L100.731 124.41L100.781 123.447L95.8044 115.752L100.797 122.724L100.808 122.929L101.212 115.225L96.951 107.274L101.263 113.873L101.683 97.9006L101.685 97.8461V97.8989L101.615 110.494L105.856 105.501L101.598 111.579L101.485 118.477L105.446 111.857L101.469 119.492L101.406 123.326L107.156 114.113L101.385 124.664L101.246 133.194Z" fill="#3F3D56"/>
<path d="M168.522 125.253C168.522 136.356 161.919 140.232 153.773 140.232C153.584 140.232 153.396 140.23 153.208 140.226C152.83 140.218 152.456 140.2 152.087 140.175C144.735 139.655 139.024 135.579 139.024 125.253C139.024 114.568 152.685 101.084 153.712 100.086L153.713 100.084C153.753 100.046 153.773 100.027 153.773 100.027C153.773 100.027 168.522 114.151 168.522 125.253Z" fill="#D3766A"/>
<path d="M153.235 138.534L158.63 131L153.222 139.361L153.207 140.226C152.83 140.218 152.456 140.2 152.087 140.175L152.668 129.067L152.664 128.981L152.674 128.965L152.728 127.916L147.307 119.534L152.745 127.129L152.758 127.352L153.197 118.959L148.556 110.298L153.254 117.486L153.711 100.086L153.713 100.027V100.084L153.637 113.805L158.258 108.366L153.618 114.987L153.496 122.501L157.81 115.29L153.478 123.607L153.41 127.784L159.673 117.747L153.386 129.242L153.235 138.534Z" fill="#3F3D56"/>
<path d="M144.705 123.513C145.297 122.265 142.554 119.726 138.579 117.842C134.604 115.957 130.902 115.441 130.31 116.688C129.718 117.936 132.461 120.474 136.436 122.359C140.411 124.244 144.113 124.76 144.705 123.513Z" fill="#2F2E41"/>
<path d="M22.0792 122.055C22.5931 120.773 19.699 118.408 15.6152 116.772C11.5313 115.136 7.80416 114.849 7.2903 116.13C6.77643 117.411 9.67048 119.777 13.7543 121.413C17.8382 123.049 21.5654 123.336 22.0792 122.055Z" fill="#2F2E41"/>
</g>
<defs>
<clipPath id="clip0_241_427">
<rect width="226" height="156.816" fill="white"/>
</clipPath>
</defs>
</svg>
