<?xml version="1.0" encoding="iso-8859-1"?>
<!-- Generator: Adobe Illustrator 19.0.0, SVG Export Plug-In . SVG Version: 6.00 Build 0)  -->
<svg version="1.1" id="Layer_1" xmlns="http://www.w3.org/2000/svg" xmlns:xlink="http://www.w3.org/1999/xlink" x="0px" y="0px"
	 viewBox="0 0 512 512" style="enable-background:new 0 0 512 512;" xml:space="preserve">
<path style="fill:#F9A926;" d="M235.997,511.761c-29.941,0-59.87-11.393-82.657-34.18c-6.523-6.523-6.523-17.091,0-23.613
	l300.59-300.59c6.523-6.523,17.091-6.523,23.613,0c45.574,45.574,45.574,119.73,0,165.303l-158.9,158.901
	C295.856,500.368,265.926,511.761,235.997,511.761z"/>
<path style="fill:#FFC033;" d="M34.154,360.613C12.15,338.619,0.027,309.266,0.027,277.956c0-31.299,12.111-60.652,34.116-82.657
	L195.271,34.18c45.596-45.585,119.751-45.563,165.303,0c6.523,6.523,6.523,17.091,0,23.613L57.768,360.613
	C51.244,367.135,40.677,367.135,34.154,360.613z"/>
<path style="fill:#E6563A;" d="M100.982,512c-25.657,0-51.314-9.763-70.851-29.299c-39.062-39.062-39.062-102.629,0-141.69
	L340.973,30.169c39.062-39.073,102.607-39.073,141.69,0c18.905,18.895,29.31,44.052,29.31,70.84
	c0,26.798-10.405,51.956-29.31,70.851L171.822,482.701C152.285,502.238,126.628,512,100.982,512z"/>
<path style="fill:#D9472B;" d="M511.969,101.008c0,26.796-10.398,51.956-29.301,70.848L171.825,482.699
	C152.287,502.237,126.627,512,100.977,512s-51.31-9.763-70.848-29.301l77.338-77.338l14.183-14.183l30.281-30.281l19.694-19.694
	l30.292-30.281l14.205-14.205l30.303-30.303l19.682-19.693l30.281-30.269l14.172-14.172l30.303-30.314l19.705-19.705l30.314-30.303
	l14.149-14.149l28.299-28.299l49.34-49.34C501.572,49.064,511.969,74.223,511.969,101.008z"/>
<path style="fill:#FFE14D;" d="M438.394,97.546c-2.917,8.75-12.402,13.482-21.13,10.565c-4.097-1.38-8.316-1.447-12.224-0.312
	c-3.273,0.935-6.312,2.716-8.895,5.299c-2.572,2.572-4.353,5.611-5.288,8.884c-1.136,3.885-1.069,8.105,0.312,12.224
	c6.513,19.56,1.503,40.756-13.07,55.318c-14.561,14.561-35.736,19.582-55.295,13.047c-4.13-1.369-8.349-1.436-12.246-0.301
	c-3.262,0.935-6.301,2.727-8.862,5.288c-2.583,2.572-4.375,5.622-5.31,8.895c-1.135,3.885-1.058,8.105,0.312,12.224
	c6.513,19.549,1.514,40.734-13.047,55.307c-14.573,14.561-35.758,19.571-55.307,13.036c-4.119-1.369-8.327-1.436-12.224-0.312
	c-3.273,0.946-6.312,2.739-8.895,5.321c-2.583,2.572-4.375,5.611-5.31,8.884c-1.124,3.885-1.046,8.104,0.323,12.224
	c6.513,19.538,1.514,40.723-13.047,55.295c-14.561,14.573-35.758,19.604-55.307,13.07c-4.119-1.369-8.327-1.447-12.224-0.323
	c-3.273,0.935-6.312,2.716-8.895,5.299s-4.375,5.633-5.31,8.906c-1.124,3.896-1.046,8.104,0.323,12.224
	c2.906,8.75-1.803,18.202-10.565,21.118c-1.748,0.59-3.529,0.857-5.277,0.857c-4.921,0-9.607-2.182-12.769-5.923
	c-1.325-1.57-2.382-3.418-3.073-5.488c-6.524-19.549-1.514-40.745,13.058-55.318c14.561-14.539,35.78-19.549,55.295-13.036
	c2.483,0.835,5.01,1.191,7.481,1.08c5.032-0.2,9.852-2.282,13.637-6.078c3.796-3.785,5.878-8.583,6.067-13.626
	c0.111-2.471-0.245-4.999-1.08-7.492c-6.513-19.538-1.503-40.723,13.047-55.284c14.573-14.573,35.769-19.593,55.295-13.07
	c2.505,0.824,5.043,1.18,7.514,1.069c5.043-0.2,9.83-2.282,13.615-6.056c3.796-3.785,5.878-8.594,6.078-13.626
	c0.1-2.471-0.256-4.999-1.08-7.492c-6.513-19.549-1.514-40.734,13.047-55.307c14.584-14.55,35.736-19.56,55.295-13.047
	c2.494,0.835,5.021,1.18,7.503,1.08c5.032-0.2,9.83-2.271,13.615-6.067c3.796-3.796,5.878-8.594,6.078-13.626
	c0.111-2.483-0.245-5.01-1.08-7.503c-6.524-19.527-1.525-40.723,13.036-55.284c14.584-14.584,35.758-19.582,55.318-13.058
	c2.071,0.69,3.919,1.748,5.488,3.073C438.394,83.786,440.621,90.866,438.394,97.546z"/>
<g>
	<path style="fill:#FFCC33;" d="M438.394,97.546c-2.917,8.75-12.402,13.482-21.13,10.565c-4.097-1.38-8.327-1.447-12.235-0.301
		l28.299-28.299C438.394,83.797,440.621,90.866,438.394,97.546z"/>
	<path style="fill:#FFCC33;" d="M378.1,189.523c-14.561,14.561-35.736,19.582-55.295,13.047c-4.13-1.369-8.349-1.436-12.246-0.289
		l30.303-30.314c5.043-0.189,9.841-2.271,13.626-6.067c3.796-3.796,5.889-8.594,6.078-13.637l30.314-30.303
		c-1.158,3.885-1.091,8.116,0.289,12.246C397.683,153.765,392.673,174.962,378.1,189.523z"/>
	<path style="fill:#FFCC33;" d="M283.652,283.983c-14.573,14.561-35.758,19.571-55.307,13.036
		c-4.119-1.369-8.327-1.436-12.224-0.301l30.303-30.303c5.043-0.2,9.819-2.282,13.604-6.056c3.796-3.785,5.889-8.594,6.078-13.637
		l30.281-30.269c-1.135,3.885-1.058,8.105,0.312,12.224C303.213,248.225,298.214,269.41,283.652,283.983z"/>
	<path style="fill:#FFCC33;" d="M189.192,378.432c-14.561,14.573-35.758,19.604-55.307,13.07c-4.119-1.369-8.338-1.447-12.235-0.323
		l30.281-30.281c5.032-0.2,9.852-2.282,13.637-6.078c3.796-3.785,5.867-8.572,6.056-13.615l30.292-30.281
		c-1.124,3.885-1.046,8.093,0.323,12.212C208.752,342.674,203.753,363.859,189.192,378.432z"/>
	<path style="fill:#FFCC33;" d="M97.215,438.726c-1.748,0.59-3.529,0.857-5.277,0.857c-4.921,0-9.607-2.182-12.769-5.923
		l28.299-28.299c-1.136,3.896-1.058,8.116,0.312,12.246C110.685,426.357,105.976,435.809,97.215,438.726z"/>
</g>
<g>
</g>
<g>
</g>
<g>
</g>
<g>
</g>
<g>
</g>
<g>
</g>
<g>
</g>
<g>
</g>
<g>
</g>
<g>
</g>
<g>
</g>
<g>
</g>
<g>
</g>
<g>
</g>
<g>
</g>
</svg>
