<svg width="48" height="48" viewBox="0 0 48 48" fill="none" xmlns="http://www.w3.org/2000/svg">
<rect width="48" height="48" rx="8" fill="#FFF8EE"/>
<path fill-rule="evenodd" clip-rule="evenodd" d="M20.4133 29.1217H26.6971C27.1707 29.1217 27.5634 28.725 27.5634 28.2467C27.5634 27.7683 27.1707 27.3833 26.6971 27.3833H20.4133C19.9397 27.3833 19.5469 27.7683 19.5469 28.2467C19.5469 28.725 19.9397 29.1217 20.4133 29.1217ZM24.3176 21.55H20.4133C19.9397 21.55 19.5469 21.9467 19.5469 22.425C19.5469 22.9033 19.9397 23.2883 20.4133 23.2883H24.3176C24.7912 23.2883 25.1839 22.9033 25.1839 22.425C25.1839 21.9467 24.7912 21.55 24.3176 21.55ZM32.561 20.5299C32.8325 20.5267 33.1282 20.5233 33.3968 20.5233C33.6856 20.5233 33.9166 20.7567 33.9166 21.0483V30.4283C33.9166 33.3217 31.5948 35.6667 28.7301 35.6667H19.5354C16.5321 35.6667 14.0833 33.205 14.0833 30.1717V17.595C14.0833 14.7017 16.4166 12.3333 19.2928 12.3333H25.4611C25.7615 12.3333 25.9925 12.5783 25.9925 12.87V16.6267C25.9925 18.7617 27.7367 20.5117 29.8506 20.5233C30.3443 20.5233 30.7796 20.527 31.1606 20.5303C31.4569 20.5328 31.7204 20.535 31.9529 20.535C32.1173 20.535 32.3305 20.5325 32.561 20.5299ZM32.8796 18.827C31.9301 18.8305 30.8108 18.827 30.0056 18.8188C28.7281 18.8188 27.6758 17.756 27.6758 16.4657V13.3903C27.6758 12.8875 28.2799 12.6378 28.6253 13.0007C29.2504 13.6571 30.1093 14.5594 30.9644 15.4576C31.8174 16.3537 32.6666 17.2458 33.2758 17.8855C33.6131 18.239 33.3659 18.8258 32.8796 18.827Z" fill="#FF9385"/>
</svg>
