<svg width="48" height="48" viewBox="0 0 48 48" fill="none" xmlns="http://www.w3.org/2000/svg">
<rect width="48" height="48" rx="8" fill="#FFF8EE"/>
<path fill-rule="evenodd" clip-rule="evenodd" d="M21.5445 23.1017C21.0341 23.1017 20.6305 23.4983 20.6305 24C20.6305 24.49 21.0341 24.8983 21.5445 24.8983H28.6666V30.475C28.6666 33.3333 26.3044 35.6667 23.3844 35.6667H17.6036C14.6954 35.6667 12.3333 33.345 12.3333 30.4867V17.525C12.3333 14.655 14.7073 12.3333 17.6155 12.3333H23.4081C26.3044 12.3333 28.6666 14.655 28.6666 17.5133V23.1017H21.5445ZM32.9018 19.9636L36.3084 23.3586C36.4834 23.5336 36.5768 23.7552 36.5768 24.0002C36.5768 24.2336 36.4834 24.4669 36.3084 24.6302L32.9018 28.0252C32.7268 28.2002 32.4934 28.2936 32.2718 28.2936C32.0384 28.2936 31.8051 28.2002 31.6301 28.0252C31.2801 27.6752 31.2801 27.1036 31.6301 26.7536L33.4968 24.8986H28.6668V23.1019H33.4968L31.6301 21.2469C31.2801 20.8969 31.2801 20.3252 31.6301 19.9752C31.9801 19.6136 32.5518 19.6136 32.9018 19.9636Z" fill="#FF9385"/>
</svg>
