<svg width="48" height="48" viewBox="0 0 48 48" fill="none" xmlns="http://www.w3.org/2000/svg">
<rect width="48" height="48" rx="8" fill="#FFF8EE"/>
<path d="M30.9048 26.7068C30.6026 26.9996 30.4638 27.4231 30.5326 27.8384L31.5698 33.5784C31.6573 34.0649 31.452 34.5573 31.0448 34.8384C30.6458 35.1301 30.115 35.1651 29.6798 34.9318L24.5126 32.2368C24.333 32.1411 24.1335 32.0898 23.9293 32.0839H23.6131C23.5035 32.1003 23.3961 32.1353 23.2981 32.1889L18.1298 34.8968C17.8743 35.0251 17.585 35.0706 17.3015 35.0251C16.6108 34.8944 16.15 34.2364 16.2631 33.5423L17.3015 27.8023C17.3703 27.3834 17.2315 26.9576 16.9293 26.6601L12.7165 22.5768C12.3641 22.2349 12.2416 21.7216 12.4026 21.2584C12.559 20.7964 12.958 20.4593 13.4398 20.3834L19.2381 19.5423C19.6791 19.4968 20.0665 19.2284 20.2648 18.8318L22.8198 13.5934C22.8805 13.4768 22.9586 13.3694 23.0531 13.2784L23.1581 13.1968C23.213 13.1361 23.276 13.0859 23.346 13.0451L23.4731 12.9984L23.6715 12.9168H24.1626C24.6013 12.9623 24.9875 13.2248 25.1893 13.6168L27.7781 18.8318C27.9648 19.2133 28.3276 19.4781 28.7465 19.5423L34.5448 20.3834C35.0348 20.4534 35.4443 20.7918 35.6065 21.2584C35.7593 21.7263 35.6275 22.2396 35.2681 22.5768L30.9048 26.7068Z" fill="#FF9385"/>
</svg>
